<svg viewBox="0 0 184 240" xmlns="http://www.w3.org/2000/svg" role="img" aria-label="ETD">
  <g fill="#710B0E">
    <path d="M92 12 C41 12 0 53 0 104 C0 136 16 165 43 182 L43 211 H141 L141 182 C168 165 184 136 184 104 C184 53 143 12 92 12 Z"/>
    <rect x="42" y="222" width="100" height="11"/>
    <rect x="42" y="199" width="100" height="12"/>
    <rect x="42" y="176" width="100" height="12"/>
    <path d="M61 234 H123 V239 C123 239 116 240 92 240 C68 240 61 239 61 239 Z"/>
  </g>
  <g fill="none" stroke="#FFFFFF" stroke-linecap="square" stroke-linejoin="miter">
    <path d="M38 105 L66 78 L92 104 L118 78 L146 105" stroke-width="16"/>
    <path d="M92 104 L92 168" stroke-width="18"/>
  </g>
</svg>
