<svg viewBox="0 0 320 180" xmlns="http://www.w3.org/2000/svg" role="img" aria-labelledby="title desc">
  <title id="title">ETD Bildmarke</title>
  <desc id="desc">Glühbirne (Elektrotechnik) und Schneeflocke (Kälte-/Klimatechnik).</desc>
  <g aria-hidden="true">

    <!-- ============ BULB (left) — wie ursprünglich ============ -->
    <g transform="translate(17 41) scale(0.5)">
      <g fill="#710B0E">
        <path d="M92 12 C41 12 0 53 0 104 C0 136 16 165 43 182 L43 211 H141 L141 182 C168 165 184 136 184 104 C184 53 143 12 92 12 Z"/>
        <rect x="42" y="222" width="100" height="11"/>
        <rect x="42" y="199" width="100" height="12"/>
        <rect x="42" y="176" width="100" height="12"/>
        <path d="M61 234 H123 V239 C123 239 116 240 92 240 C68 240 61 239 61 239 Z"/>
      </g>
      <g fill="none" stroke="#FFFFFF" stroke-linecap="square" stroke-linejoin="miter">
        <path d="M38 105 L66 78 L92 104 L118 78 L146 105" stroke-width="16"/>
        <path d="M92 104 L92 168" stroke-width="18"/>
      </g>
    </g>

    <!-- ============ SNOWFLAKE (right) — Lottie 6-arm + V-tips ============ -->
    <g transform="translate(228 90)" stroke="#075F9F" stroke-linecap="round" fill="none">
      <g stroke-width="8">
        <line x1="0" y1="-58" x2="0" y2="58"/>
        <line x1="-50" y1="-29" x2="50" y2="29"/>
        <line x1="-50" y1="29" x2="50" y2="-29"/>
      </g>
      <g stroke-width="6">
        <path d="M0 -58 L-10 -48 M0 -58 L10 -48"/>
        <path d="M0 58 L-10 48 M0 58 L10 48"/>
        <path d="M-50 -29 L-40 -33 M-50 -29 L-40 -25"/>
        <path d="M50 29 L40 33 M50 29 L40 25"/>
        <path d="M-50 29 L-40 25 M-50 29 L-40 33"/>
        <path d="M50 -29 L40 -25 M50 -29 L40 -33"/>
      </g>
      <circle cx="0" cy="0" r="5" fill="#075F9F" stroke="none"/>
    </g>

  </g>
</svg>
