<svg viewBox="0 0 320 180" xmlns="http://www.w3.org/2000/svg" role="img" aria-labelledby="title desc">
  <title id="title">ETD Bildmarke</title>
  <desc id="desc">Kompakte Vektor-Bildmarke mit kleiner roter Glühbirne und klarem blauem Schneeflocken-Klimaicon.</desc>
  <g aria-hidden="true">
    <g fill="none" stroke="#075F9F" stroke-linecap="round" stroke-linejoin="round">
      <path d="M118 47 C153 20 211 18 249 50" stroke-width="8" opacity="0.82"/>
      <path d="M116 134 C154 159 216 158 253 126" stroke-width="8" opacity="0.82"/>
      <g transform="translate(133 18) scale(6.1)" stroke-width="2">
        <path d="m10 20-1.25-2.5L6 18"/>
        <path d="M10 4 8.75 6.5 6 6"/>
        <path d="m14 20 1.25-2.5L18 18"/>
        <path d="m14 4 1.25 2.5L18 6"/>
        <path d="m17 21-3-6h-4"/>
        <path d="m17 3-3 6 1.5 3"/>
        <path d="M2 12h6.5L10 9"/>
        <path d="m20 10-1.5 2 1.5 2"/>
        <path d="M22 12h-6.5L14 15"/>
        <path d="m4 10 1.5 2L4 14"/>
        <path d="m7 21 3-6-1.5-3"/>
        <path d="m7 3 3 6h4"/>
      </g>
    </g>
    <g transform="translate(17 41) scale(0.5)">
      <g fill="#710B0E">
        <path d="M92 12 C41 12 0 53 0 104 C0 136 16 165 43 182 L43 211 H141 L141 182 C168 165 184 136 184 104 C184 53 143 12 92 12 Z"/>
        <rect x="42" y="222" width="100" height="11"/>
        <rect x="42" y="199" width="100" height="12"/>
        <rect x="42" y="176" width="100" height="12"/>
        <path d="M61 234 H123 V239 C123 239 116 240 92 240 C68 240 61 239 61 239 Z"/>
      </g>
      <g fill="none" stroke="#FFFFFF" stroke-linecap="square" stroke-linejoin="miter">
        <path d="M38 105 L66 78 L92 104 L118 78 L146 105" stroke-width="16"/>
        <path d="M92 104 L92 168" stroke-width="18"/>
      </g>
    </g>
  </g>
</svg>
